<?xml version="1.0" encoding="UTF-8"?><svg id="a" xmlns="http://www.w3.org/2000/svg" viewBox="0 0 510 140"><defs><style>.b{fill:#231f20;}</style></defs><path class="b" d="M68.41,123.83h9.23v-21.73h2.2l4.33,21.73h9.3l-5.47-23.86c4.12-2.41,5.4-8.09,5.4-12.35,0-10.65-5.82-14.34-14.63-14.34h-10.37v50.55Zm9.23-43.17h1.42c3.12,0,5.11,1.56,5.11,7.03,0,3.62-1.28,7.03-4.69,7.03h-1.85v-14.06Zm-28.97,12.57c0-10.93,1.28-13.14,3.41-13.14s3.41,2.2,3.41,13.14v10.65c0,10.93-1.28,13.14-3.41,13.14s-3.41-2.2-3.41-13.14v-10.65Zm-10.08,5.33c0,19.95,5.32,26.27,13.49,26.27s13.49-6.32,13.49-26.27-5.32-26.27-13.49-26.27-13.49,6.32-13.49,26.27m-21.16,25.28h9.23v-21.02h8.45v-8.24h-8.45v-13.49h11.43v-7.81H17.42v50.55Z"/><path class="b" d="M463.45,65.83h21.37v-7.81h-12.14v-13.77h8.59v-8.24h-8.59v-12.92h11.64v-7.81h-20.87v50.55Zm-20.16,0h9.23V23.09h7.95v-7.81h-25.13v7.81h7.95v42.74Zm-34.22-12.64c0,9.94,4.76,13.63,11.86,13.63s11.79-3.69,11.79-13.63V15.28h-7.81V54.4c0,2.41-.85,4.62-3.41,4.62-2.7,0-3.19-2.34-3.19-4.62V15.28h-9.23V53.19Zm-20.16,12.64h9.23V23.09h7.95v-7.81h-25.13v7.81h7.95v42.74Zm-20.16,0h9.23V15.28h-9.23v50.55Zm-20.16,0h9.23V23.09h7.95v-7.81h-25.13v7.81h7.95v42.74Zm-32.25-14.63c0,6.96,1.99,15.62,11.86,15.62,8.31,0,12.71-6.18,12.71-13.92,0-14.7-16.76-17.61-16.76-26.2,0-2.77,1.28-4.61,3.48-4.61,3.69,0,3.69,4.76,3.69,7.6h8.24c-.21-9.09-3.41-15.41-11.71-15.41-7.81,0-11.93,6.18-11.93,13.77,0,14.98,16.76,17.04,16.76,26.06,0,2.06-1.06,4.9-4.12,4.9-3.98,0-3.98-4.97-3.98-7.81h-8.24Zm-27.92,14.63h7.81v-30.6h.14l9.87,30.6h7.17V15.28h-7.38v26.7h-.14l-8.45-26.7h-9.02v50.55Zm-12.71,0h9.23V15.28h-9.23v50.55Zm-44.02,0h7.81v-30.6h.14l9.87,30.6h7.17V15.28h-7.38v26.7h-.14l-8.45-26.7h-9.02v50.55Zm-34.3,0h8.09l4.54-32.02h.14l4.4,32.02h8.38l6.6-50.55h-6.6l-3.62,29.68h-.14l-4.05-29.68h-8.31l-4.4,29.68h-.14l-3.27-29.68h-8.38l6.74,50.55Zm-24-30.6c0-10.93,1.28-13.13,3.41-13.13s3.41,2.2,3.41,13.13v10.65c0,10.93-1.28,13.14-3.41,13.14s-3.41-2.2-3.41-13.14v-10.65Zm-10.08,5.33c0,19.95,5.32,26.27,13.49,26.27s13.49-6.32,13.49-26.27-5.32-26.27-13.49-26.27-13.49,6.32-13.49,26.27m-27.55,25.28h9.23v-21.73h2.2l4.33,21.73h9.3l-5.47-23.86c4.12-2.41,5.4-8.09,5.4-12.35,0-10.65-5.82-14.34-14.63-14.34h-10.37v50.55Zm9.23-43.17h1.42c3.12,0,5.11,1.56,5.11,7.03,0,3.62-1.28,7.03-4.69,7.03h-1.85v-14.06Zm-36.94,43.17h11.79c6.82,0,13.06-4.83,13.06-14.06,0-6.39-2.91-10.79-9.23-12.28v-.14c5.68-1.21,8.24-5.61,8.24-11.29,0-9.66-6.82-12.78-12.5-12.78h-11.36v50.55Zm9.23-43.17c4.61-.07,5.82,.92,5.82,6.67,0,4.54-1.21,6.67-5.82,6.67v-13.35Zm0,21.16c5.25-.07,6.39,2.56,6.39,7.17,0,5.25-.85,7.45-6.39,7.45v-14.63Zm-47.99,22.01h21.37v-7.81h-12.14v-13.77h8.59v-8.24h-8.59v-12.92h11.64v-7.81h-20.87v50.55Zm-27.41,0h9.23v-21.44h5.82v21.44h9.23V15.28h-9.23v20.31h-5.82V15.28h-9.23v50.55Zm-20.16,0h9.23V23.09h7.95v-7.81H13.73v7.81h7.95v42.74Z"/><path class="b" d="M471.28,123.83h7.81v-30.6h.14l9.87,30.6h7.17v-50.55h-7.38v26.7h-.14l-8.45-26.7h-9.02v50.55Zm-19.74-30.6c0-10.93,1.28-13.14,3.41-13.14s3.41,2.2,3.41,13.14v10.65c0,10.93-1.28,13.14-3.41,13.14s-3.41-2.2-3.41-13.14v-10.65Zm-10.08,5.33c0,19.95,5.32,26.27,13.49,26.27s13.49-6.32,13.49-26.27-5.32-26.27-13.49-26.27-13.49,6.32-13.49,26.27m-13.13,25.28h9.23v-50.55h-9.23v50.55Zm-20.16,0h9.23v-42.74h7.95v-7.81h-25.13v7.81h7.95v42.74Zm-31.52,0h7.74l1.28-11.22h7.45l1.35,11.22h8.87l-6.25-50.55h-13.35l-7.1,50.55Zm15.69-18.6h-5.75l2.91-24.14h.14l2.7,24.14Zm-30.68,18.6h10.58l7.6-50.55h-7.45l-4.76,35.5h-.14l-4.33-35.5h-9.02l7.53,50.55Zm-24.66-30.6c0-10.93,1.28-13.14,3.41-13.14s3.41,2.2,3.41,13.14v10.65c0,10.93-1.28,13.14-3.41,13.14s-3.41-2.2-3.41-13.14v-10.65Zm-10.08,5.33c0,19.95,5.32,26.27,13.49,26.27s13.49-6.32,13.49-26.27-5.32-26.27-13.49-26.27-13.49,6.32-13.49,26.27m-27.83,25.28h7.81v-30.6h.14l9.87,30.6h7.17v-50.55h-7.38v26.7h-.14l-8.45-26.7h-9.02v50.55Zm-28.47,0h7.81v-30.6h.14l9.87,30.6h7.17v-50.55h-7.38v26.7h-.14l-8.45-26.7h-9.02v50.55Zm-12.71,0h9.23v-50.55h-9.23v50.55Z"/><path class="b" d="M212.94,123.83h7.74l1.28-11.22h7.45l1.35,11.22h8.87l-6.25-50.55h-13.35l-7.1,50.55Zm15.69-18.6h-5.75l2.91-24.14h.14l2.7,24.14Zm-27.04,18.6h9.23v-50.55h-9.23v50.55Zm-18.53-42.74c5.82,.07,6.11,2.13,6.11,17.4s-.28,17.47-6.11,17.54v-34.93Zm-9.23,42.74h9.51c14.27,0,15.48-10.65,15.48-25.28s-1.49-25.28-16.97-25.28h-8.02v50.55Zm-24.64,0h21.37v-7.81h-12.14v-13.77h8.59v-8.24h-8.59v-12.92h11.64v-7.81h-20.87v50.55Zm-36.35,0h6.82v-37.06h.14l6.18,37.06h5.11l6.25-37.06h.14v37.06h8.24v-50.55h-12l-4.33,25.92h-.14l-4.12-25.92h-12.28v50.55Z"/></svg>